<svg width="192" height="192" viewBox="0 0 192 192" fill="none" xmlns="http://www.w3.org/2000/svg">
<rect width="192" height="192" fill="#000E2F"/>
<path d="M78.2404 45.3103L82.2405 48.8103L87.2405 50.8103L94.2404 53L102.737 39.3492L107 32.5L94.5 24.3103L90.609 29.3891L78.2404 45.3103Z" fill="white"/>
<path d="M127.5 48.5L144 62L138.3 68.5553L134 73.5L129 71.5L123.286 68.5553L118.5 65L123.286 56.2253L127.5 48.5Z" fill="white"/>
<path d="M158.5 78L145.5 64.5L140.65 70.4853L137.396 74.5L140.65 78.5L146.896 82.5L152.698 80.25L158.5 78Z" fill="white"/>
<path d="M109.5 34.5L105.23 41.397L96.7837 55L102.784 59.5L107.284 62L114.784 64.5L120.69 54.0934L125 46.5L109.5 34.5Z" fill="white"/>
<path d="M158.5 78L152.698 80.25L155.609 82.6621L158.5 78Z" fill="white"/>
<path d="M65 57L102.5 73V81.5L98.5 84.5L84 88.5L73 78.5V86.5L70.4661 89.984L77.5648 95.7114L87.8454 104.006L93.8737 108.87L124.768 133.796C126.331 135.057 128.587 134.964 130.04 133.578L138.581 125.434L167.244 98.1046C168.977 96.4521 168.88 93.6574 167.036 92.1296L155.609 82.6621L152.698 80.25L146.896 82.5L140.65 78.5L137.396 74.5L140.65 70.4853L138.3 68.5553L134 73.5L129 71.5L123.286 68.5553L118.5 65L123.286 56.2253L120.69 54.0934L114.784 64.5L107.284 62L102.784 59.5L96.7837 55L105.23 41.397L102.737 39.3492L94.2404 53L87.2405 50.8103L82.2405 48.8103L78.2404 45.3103L90.609 29.3891L71.8652 15.1731C70.2359 13.9374 67.9368 14.1296 66.5353 15.6187L31.8833 52.4365C30.315 54.1029 30.4616 56.7429 32.2049 58.2252L52.6383 75.6003C56.2182 69.8188 60.0257 64.1381 65 57Z" fill="#7C878E"/>
<path d="M69.1331 190H125.133L125 149.5L136.5 136L138.581 125.434L130.04 133.578C128.587 134.964 126.331 135.057 124.768 133.796L93.8737 108.87L106 125.5L110 132.5V136L115 143.5L108 138L105 141.5H97.5L108 134L106 130L87.8454 104.006L77.5648 95.7114L69 92L70.4661 89.984L73 86.5V78.5L84 88.5L98.5 84.5L102.5 81.5V73L65 57C60.0257 64.1381 56.2182 69.8188 52.6383 75.6003C48.8714 81.6837 45.3567 87.8786 41 96C56.81 117.248 64.5439 128.131 75 144.5L69.1331 190Z" fill="white"/>
<path d="M158.5 78L145.5 64.5L140.65 70.4853M158.5 78L152.698 80.25M158.5 78L155.609 82.6621M52.6383 75.6003L32.2049 58.2252C30.4616 56.7429 30.315 54.1029 31.8833 52.4365L66.5353 15.6187C67.9368 14.1296 70.2359 13.9374 71.8652 15.1731L90.609 29.3891M52.6383 75.6003C48.8714 81.6837 45.3567 87.8786 41 96C56.81 117.248 64.5439 128.131 75 144.5L69.1331 190H125.133L125 149.5L136.5 136L138.581 125.434M52.6383 75.6003C56.2182 69.8188 60.0257 64.1381 65 57L102.5 73V81.5L98.5 84.5L84 88.5L73 78.5V86.5L70.4661 89.984M70.4661 89.984L69 92L77.5648 95.7114M70.4661 89.984L77.5648 95.7114M90.609 29.3891L94.5 24.3103L107 32.5L102.737 39.3492M90.609 29.3891L78.2404 45.3103L82.2405 48.8103L87.2405 50.8103L94.2404 53L102.737 39.3492M102.737 39.3492L105.23 41.397M105.23 41.397L109.5 34.5L125 46.5L120.69 54.0934M105.23 41.397L96.7837 55L102.784 59.5L107.284 62L114.784 64.5L120.69 54.0934M120.69 54.0934L123.286 56.2253M123.286 56.2253L118.5 65L123.286 68.5553L129 71.5L134 73.5L138.3 68.5553M123.286 56.2253L127.5 48.5L144 62L138.3 68.5553M138.3 68.5553L140.65 70.4853M140.65 70.4853L137.396 74.5L140.65 78.5L146.896 82.5L152.698 80.25M152.698 80.25L155.609 82.6621M138.581 125.434L130.04 133.578C128.587 134.964 126.331 135.057 124.768 133.796L93.8737 108.87M138.581 125.434L167.244 98.1046C168.977 96.4521 168.88 93.6574 167.036 92.1296L155.609 82.6621M93.8737 108.87L106 125.5L110 132.5V136L115 143.5L108 138L105 141.5H97.5L108 134L106 130L87.8454 104.006M93.8737 108.87L87.8454 104.006M87.8454 104.006L77.5648 95.7114" stroke="black"/>
</svg>
